<?xml version="1.0" encoding="UTF-8"?>
<svg xmlns="http://www.w3.org/2000/svg" xmlns:xlink="http://www.w3.org/1999/xlink" width="228.571" height="80" viewBox="0 0 228.571 80">
  <defs>
    <clipPath id="a">
      <rect width="228.571" height="80" fill="none"></rect>
    </clipPath>
  </defs>
  <g transform="translate(-883 -610)">
    <g transform="translate(883 610)">
      <g transform="translate(0 0)" clip-path="url(#a)">
        <path d="M55.083,15.761c0-4.384-2-7.037-5.1-7.037s-5.1,2.654-5.1,7.037,2,7.19,5.1,7.19,5.1-2.806,5.1-7.19m-13.8,0c0-6.32,3.56-10.045,8.7-10.045s8.7,3.744,8.7,10.045c0,6.318-3.557,10.2-8.7,10.2s-8.7-3.885-8.7-10.2" transform="translate(58.759 8.135)" fill="#00317a"></path>
        <path d="M58.1,18.821v-3.3c-4.016.5-5.356,1.541-5.356,3.024,0,1.3.892,1.861,2.137,1.861A4.688,4.688,0,0,0,58.1,18.821m-8.71-.012c0-3.141,2.629-4.779,8.71-5.423-.048-1.578-.688-2.891-2.69-2.891a8.242,8.242,0,0,0-4.161,1.444l-1.28-2.293a11.632,11.632,0,0,1,6.08-1.924c3.7,0,5.525,2.259,5.525,6.344v8.685H58.725l-.267-1.626h-.095a7.2,7.2,0,0,1-4.6,1.985,4.132,4.132,0,0,1-4.379-4.3" transform="translate(70.297 10.99)" fill="#00317a"></path>
        <path d="M55.917,5.218h3.4V18.394h.1l5.489-6.749h3.8l-5.079,5.974,5.6,8.7H65.446l-3.812-6.366L59.32,22.586v3.727h-3.4Z" transform="translate(79.59 7.426)" fill="#00317a"></path>
        <path d="M63.451,5.864h3.7l2.775,9.819c.637,2.217,1.074,4.132,1.738,6.354h.119c.664-2.222,1.117-4.137,1.738-6.354l2.738-9.819h3.57L73.726,25.4H69.577Z" transform="translate(90.314 8.346)" fill="#00317a"></path>
        <path d="M79.085,18.821v-3.3c-4.016.5-5.356,1.541-5.356,3.024,0,1.3.892,1.861,2.137,1.861a4.693,4.693,0,0,0,3.218-1.587m-8.71-.012c0-3.141,2.629-4.779,8.71-5.423-.048-1.578-.688-2.891-2.69-2.891a8.242,8.242,0,0,0-4.161,1.444l-1.28-2.293a11.632,11.632,0,0,1,6.08-1.924c3.7,0,5.525,2.259,5.525,6.344v8.685H79.712l-.267-1.626h-.094a7.2,7.2,0,0,1-4.6,1.985,4.132,4.132,0,0,1-4.379-4.3" transform="translate(100.169 10.99)" fill="#00317a"></path>
        <path d="M76.9,22.54V5.218h3.473v17.5c0,.848.388,1.146.749,1.146a2.034,2.034,0,0,0,.543-.061l.431,2.569a4.9,4.9,0,0,1-1.834.3C77.8,26.674,76.9,25.1,76.9,22.54" transform="translate(109.456 7.426)" fill="#00317a"></path>
        <path d="M79.934,22.54V5.218h3.475v17.5c0,.848.385,1.146.746,1.146a2.041,2.041,0,0,0,.545-.061l.431,2.569a4.9,4.9,0,0,1-1.834.3c-2.457,0-3.364-1.578-3.364-4.134" transform="translate(113.775 7.426)" fill="#00317a"></path>
        <path d="M92.565,14.018c0-2.259-1.015-3.633-3.041-3.633-1.725,0-3.245,1.277-3.548,3.633Zm-9.943,1.408c0-4.767,3.344-7.7,6.831-7.7,4,0,6.114,2.867,6.114,6.962a8.686,8.686,0,0,1-.153,1.675h-9.4a4.2,4.2,0,0,0,4.367,4.083,6.35,6.35,0,0,0,3.439-1.061L95,21.518a9.243,9.243,0,0,1-5.079,1.59c-4.088,0-7.3-2.843-7.3-7.682" transform="translate(117.601 10.99)" fill="#00317a"></path>
        <path d="M89.355,28.261l.637-2.666a4.085,4.085,0,0,0,1.061.2c1.556,0,2.46-1.052,2.954-2.52l.279-.918L88.461,7.871h3.521l2.559,7.19c.446,1.3.868,2.746,1.3,4.144h.121c.373-1.362.746-2.806,1.134-4.144l2.208-7.19h3.354L97.3,23.206c-1.231,3.305-2.787,5.353-6.02,5.353a5.81,5.81,0,0,1-1.929-.3" transform="translate(125.912 11.203)" fill="#00317a"></path>
        <path d="M41.71,18.189h3.5v7.849h7.973V18.189h3.5V37.721h-3.5V29.06H45.209v8.661h-3.5Z" transform="translate(59.369 25.889)" fill="#00317a"></path>
        <path d="M59.226,26.343c0-2.256-1.013-3.63-3.039-3.63-1.728,0-3.247,1.277-3.548,3.63Zm-9.941,1.41c0-4.767,3.342-7.706,6.829-7.706,4,0,6.114,2.869,6.114,6.965a8.738,8.738,0,0,1-.15,1.675H52.673a4.2,4.2,0,0,0,4.369,4.083,6.348,6.348,0,0,0,3.436-1.061l1.185,2.137a9.277,9.277,0,0,1-5.082,1.59c-4.088,0-7.3-2.843-7.3-7.682" transform="translate(70.15 28.533)" fill="#00317a"></path>
        <path d="M64.175,31.147v-3.3c-4.016.5-5.356,1.541-5.356,3.024,0,1.3.892,1.861,2.137,1.861a4.688,4.688,0,0,0,3.218-1.587m-8.71-.012c0-3.141,2.629-4.779,8.71-5.423-.048-1.578-.688-2.891-2.688-2.891a8.223,8.223,0,0,0-4.163,1.447l-1.28-2.295a11.632,11.632,0,0,1,6.08-1.924c3.7,0,5.525,2.259,5.525,6.344v8.685H64.8l-.267-1.626h-.095a7.2,7.2,0,0,1-4.6,1.985,4.132,4.132,0,0,1-4.379-4.3" transform="translate(78.947 28.535)" fill="#00317a"></path>
        <path d="M61.989,34.866V17.544h3.473v17.5c0,.848.388,1.146.749,1.146a2.016,2.016,0,0,0,.543-.061l.434,2.569a4.9,4.9,0,0,1-1.832.3c-2.462,0-3.366-1.578-3.366-4.134" transform="translate(88.233 24.971)" fill="#00317a"></path>
        <path d="M66.59,32.271V25.282H64.477V22.7l2.293-.153.41-4h2.884v4h3.778v2.734H70.063v6.982c0,1.728.676,2.576,2.1,2.576a4.7,4.7,0,0,0,1.546-.334l.591,2.532a9.73,9.73,0,0,1-3.029.538c-3.415,0-4.68-2.14-4.68-5.3" transform="translate(91.774 26.396)" fill="#00317a"></path>
        <path d="M69.587,17.544H73.06V23l-.143,2.83a6.864,6.864,0,0,1,4.743-2.222c3.17,0,4.558,2.128,4.558,5.831v9.2H78.742V29.884c0-2.414-.7-3.32-2.3-3.32-1.3,0-2.159.632-3.378,1.827V38.639H69.587Z" transform="translate(99.047 24.971)" fill="#00317a"></path>
        <path d="M78.418,22.991c-1.587.935-3.412,1.517-4.82,2.678-2.8,2.309.594,6.841-1.742,9.328-1.471,1.568-4.163.981-5.751.092a14.244,14.244,0,0,1-4.689-4.512c-.8-1.19-1.684-2.654-3.112-3.177a2.549,2.549,0,0,0-2.554.448c-1.187,1.141-.41,2.927.264,4.122a54.988,54.988,0,0,0,3.2,4.793c2.1,2.954,2.106,6.386-.557,8.605-3.078,2.566-7.28,1.178-10.646-1a26.658,26.658,0,0,1-6.829-6.846c-1.575-2.157-3.6-5.54-6.829-4.692-3.034.795-1.9,4.016-.8,5.971,1.461,2.608,4.074,4.667,4.745,7.658a6.113,6.113,0,0,1,.143,1.755,4.954,4.954,0,0,1-4.091,4.231c-7.517,1.842-17.7-4.04-23.657-9.371A40.564,40.564,0,0,1,1.68,31.026s19.069-20.145,76.738-8.036" transform="translate(2.391 27.209)" fill="#38aa6b"></path>
        <path d="M27.193,10.285A6.908,6.908,0,1,0,34.165,17.2a6.944,6.944,0,0,0-6.972-6.914M65.113,23.041a4.687,4.687,0,1,0,4.73,4.692,4.71,4.71,0,0,0-4.73-4.692M48.428,13.064a6.171,6.171,0,1,0,6.226,6.175,6.2,6.2,0,0,0-6.226-6.175M4.071,58.238A40.117,40.117,0,0,1,0,40.548a40.986,40.986,0,0,1,81.968.068A40.2,40.2,0,0,1,80.809,50.2L80.79,50.2a18.9,18.9,0,0,1-9.068-6.5c-2-2.518-3.2-5.268-4.255-6.422a5.588,5.588,0,0,0-8.339-.189,13.742,13.742,0,0,1-2.9,2.92c-2.809,1.648-3.429-2.45-3.793-4.192-.485-2.339-1.093-5.075-3.223-6.507a6.8,6.8,0,0,0-7.445.128c-1.7,1.137-2.639,2.872-3.7,4.539-.78,1.226-1.912,3.24-3.613,3.364-1.592.116-2.108-2.007-2.392-3.177-1.076-4.435-4.331-7.357-9.025-7.447-6.759-.131-16.064,10.253-18.96,31.509Z" transform="translate(0 -0.001)" fill="#00317a"></path>
      </g>
    </g>
  </g>
</svg>
